PathFileType	4	(X/Y/Z)	C:/Users/opensim2020/Desktop/walking_exp_matlab/subject06_walking14_straight_02.trc																																																																																																																																					
DataRate	CameraRate	NumFrames	NumMarkers	Units	OrigDataRate	OrigDataStartFrame	OrigNumFrames																																																																																																																																	
100	100	8	45	mm	100	1676	192																																																																																																																																	
Frame#	Time	LFHD			RFHD			LBHD			RBHD			C7			T10			CLAV			STRN			RBAK			LSHO			LUPA			LELB			LFRM			LWRA			LWRB			LFIN			RSHO			RUPA			RELB			RFRM			RWRA			RWRB			RFIN			LASI			RASI			LPSI			RPSI			LTHI			LKNE			LTIB			LANK			LHEE			LTOE			RTHI			RKNE			RTIB			RANK			RHEE			RTOE			*39			*40			*41			*42			*43			*44		
		X1	Y1	Z1	X2	Y2	Z2	X3	Y3	Z3	X4	Y4	Z4	X5	Y5	Z5	X6	Y6	Z6	X7	Y7	Z7	X8	Y8	Z8	X9	Y9	Z9	X10	Y10	Z10	X11	Y11	Z11	X12	Y12	Z12	X13	Y13	Z13	X14	Y14	Z14	X15	Y15	Z15	X16	Y16	Z16	X17	Y17	Z17	X18	Y18	Z18	X19	Y19	Z19	X20	Y20	Z20	X21	Y21	Z21	X22	Y22	Z22	X23	Y23	Z23	X24	Y24	Z24	X25	Y25	Z25	X26	Y26	Z26	X27	Y27	Z27	X28	Y28	Z28	X29	Y29	Z29	X30	Y30	Z30	X31	Y31	Z31	X32	Y32	Z32	X33	Y33	Z33	X34	Y34	Z34	X35	Y35	Z35	X36	Y36	Z36	X37	Y37	Z37	X38	Y38	Z38	X39	Y39	Z39	X40	Y40	Z40	X41	Y41	Z41	X42	Y42	Z42	X43	Y43	Z43	X44	Y44	Z44	X45	Y45	Z45
																																																																																																																																								
97	0.96	17.60445	1647.74866	947.84467	23.50507	1636.98364	1079.93213	-111.35131	1583.93994	952.78821	-103.88675	1578.61816	1081.88843	-99.38837	1428.31396	1002.96375	-124.55935	1098.65051	1006.91919	14.19002	1355.3407	1006.89478	57.38825	1179.96021	997.0697	-170.12505	1254.39539	1073.74426	-36.33151	1386.69861	843.10254	5.35926	1187.82751	772.45483	37.11293	1079.34375	760.34082	150.07317	982.53784	746.69751	270.90417	952.13959	796.49658	236.81442	901.75885	761.40985	324.19656	882.1756	762.59009	-37.96431	1381.10034	1168.35022	-108.28027	1188.65625	1246.08875	-118.87888	1066.89832	1259.06726	-134.64102	947.86713	1278.54004	-109.90313	796.26215	1257.62585	-167.51396	813.80579	1290.85291	-155.56181	730.01575	1296.90344	49.57426	934.664	897.69934	64.26623	953.35913	1118.61255	-106.30956	965.13135	933.98376	-91.55396	975.40503	1103.14319	-65.76481	625.49817	858.1571	-103.90533	465.07056	883.36664	-264.7226	260.53638	887.55774	-359.33838	115.10881	928.29889	-404.32495	121.00384	971.50934	-240.84116	33.98574	936.91766	75.95877	630.7912	1184.02979	116.74232	514.69647	1151.73938	131.51598	248.07726	1153.24365	157.80962	64.76411	1105.56213	124.79255	40.20285	1058.32837	314.96027	39.11571	1103.41455	-82.45607	1679.13696	1011.44568	NaN	NaN	NaN	NaN	NaN	NaN	NaN	NaN	NaN	NaN	NaN	NaN	NaN	NaN	NaN
98	0.97	28.1501	1649.81921	948.93787	34.13977	1639.0592	1080.97913	-100.88232	1586.01624	953.9848	-93.13786	1580.6842	1083.02942	-88.73857	1430.08997	1004.1217	-113.38515	1100.62659	1007.59088	25.08085	1357.49023	1007.78107	68.53157	1182.15649	997.92371	-158.96867	1256.43066	1074.80225	-25.39837	1388.88416	844.17151	14.92715	1189.37329	774.13837	46.09246	1080.76563	762.31293	157.19792	981.74872	748.41962	277.57706	949.08966	797.63666	241.75853	898.71008	763.63013	329.06323	877.9845	763.65387	-26.9561	1383.24817	1169.22632	-95.61852	1190.23438	1247.22778	-105.49908	1068.51135	1259.79895	-120.35773	949.41895	1279.54321	-94.63937	798.1228	1258.64844	-152.40872	815.15985	1292.05371	-140.05028	731.35126	1297.75916	61.06064	936.55701	898.88483	75.70059	956.60883	1119.31042	-94.73317	967.22186	934.63184	-79.58592	977.78186	1103.29956	-52.46855	626.30603	859.28815	-88.29663	465.51236	884.05707	-255.48943	266.07437	888.36975	-353.54257	123.07423	928.3775	-397.44958	130.72475	971.94958	-240.5677	33.79259	936.81866	86.24194	632.94275	1184.86804	126.10322	516.07788	1152.15039	136.16682	248.98032	1153.43396	159.13857	65.1786	1105.96643	124.96423	40.4878	1059.12134	316.01843	37.96407	1101.45667	-71.97839	1681.29028	1012.61517	NaN	NaN	NaN	NaN	NaN	NaN	NaN	NaN	NaN	NaN	NaN	NaN	NaN	NaN	NaN
99	0.98	38.72288	1652.1499	949.97894	44.83876	1641.2146	1081.93555	-90.31944	1588.38269	955.06464	-82.43185	1582.97205	1084.17981	-78.0668	1432.25769	1005.00146	-102.19615	1102.98767	1008.60333	35.97485	1359.78064	1008.63983	79.72343	1184.58911	998.75085	-147.54283	1258.50208	1075.74866	-14.60748	1391.21265	845.19	24.50785	1191.40063	775.67395	54.68776	1082.53674	764.35382	163.64011	981.13623	750.3905	283.60315	945.69263	798.74139	246.45822	896.00867	765.17322	333.31131	873.41534	764.54877	-16.03172	1385.77637	1170.0929	-82.97551	1192.24365	1248.34119	-92.22182	1070.54932	1260.74561	-105.78818	951.2644	1280.5304	-78.85442	800.17444	1259.50964	-136.72876	816.79932	1293.19092	-123.74492	732.95056	1298.57324	72.45251	938.74835	900.36566	86.69373	959.68866	1120.39941	-83.28094	969.43689	935.5412	-68.23897	980.39893	1103.93909	-38.71183	627.24359	860.39038	-71.94267	465.95584	884.34393	-245.04616	271.96902	888.81989	-346.54443	131.44565	928.76654	-389.29065	141.14067	972.70026	-239.66956	33.9939	937.42792	96.61836	634.64355	1185.25061	134.62288	517.18555	1152.63708	140.76305	249.87521	1153.72339	159.89058	65.35264	1105.55115	124.92472	40.58778	1059.40942	316.58853	36.97356	1099.93835	-61.31985	1683.59277	1013.80383	NaN	NaN	NaN	NaN	NaN	NaN	NaN	NaN	NaN	NaN	NaN	NaN	NaN	NaN	NaN
100	0.99	49.43711	1654.6853	951.35144	55.48708	1643.40125	1082.87695	-79.75617	1590.93945	956.00854	-71.86106	1585.39807	1085.20569	-67.36168	1434.38428	1005.93146	-91.36542	1105.58032	1009.85138	46.75902	1362.15479	1009.39526	90.78341	1187.1062	999.565	-136.51283	1261.17712	1076.60999	-4.08628	1393.72412	846.24164	34.18922	1193.72644	777.15411	63.13474	1084.54346	766.42548	169.75856	980.35486	751.78003	288.99939	941.98169	799.77997	250.27893	893.16461	766.61493	336.66614	868.4303	765.40387	-4.96185	1388.46582	1170.75183	-70.51749	1194.60876	1249.78186	-78.6101	1072.7804	1261.62842	-91.07052	953.39868	1281.48779	-63.64083	802.08752	1260.45923	-120.55816	818.63617	1294.27856	-106.75562	734.73572	1299.28333	83.8783	941.20856	902.19995	97.66125	962.50409	1121.65759	-72.03915	971.72028	936.8941	-56.95913	982.8562	1105.02881	-24.79474	628.29767	861.25323	-55.01744	466.44867	884.10516	-233.09894	277.63989	889.43469	-338.22501	140.06009	929.30988	-379.39822	151.69295	973.91272	-238.9406	34.17167	938.06433	106.25526	636.07568	1185.71069	141.90349	517.82843	1152.98438	144.69176	250.38615	1153.67334	160.19514	65.57288	1105.30505	124.85339	40.66873	1059.46545	316.90903	36.25087	1098.92883	-50.52526	1685.93152	1014.8728	NaN	NaN	NaN	NaN	NaN	NaN	NaN	NaN	NaN	NaN	NaN	NaN	NaN	NaN	NaN
101	1	60.12194	1656.86365	952.28314	66.17098	1645.47888	1083.81372	-69.26263	1593.44263	956.91797	-61.3334	1587.76733	1086.01563	-56.67894	1436.60828	1006.80322	-80.42265	1108.08997	1011.16718	57.49215	1364.52527	1010.02271	101.90161	1189.58154	1000.38043	-125.30474	1263.75598	1077.64795	6.25042	1396.20886	847.29944	43.96978	1196.3429	778.427	71.23093	1086.57495	768.51447	175.26091	979.60522	753.39581	293.8566	938.01733	800.63373	253.64528	890.20093	767.72687	339.34375	863.15094	766.16974	5.99385	1391.26392	1171.38379	-57.79561	1196.96411	1250.59863	-65.29354	1075.20105	1262.65637	-76.2362	955.67273	1282.48645	-46.92217	804.88397	1261.35767	-103.89359	820.51898	1295.26099	-89.34065	736.80188	1300.19177	94.57114	943.63696	903.79578	108.28121	965.00189	1122.97144	-61.06066	974.01959	938.58911	-45.71484	985.19177	1106.46411	-10.61857	629.44165	861.74615	-37.56349	467.0173	883.43353	-219.74426	283.14297	890.29846	-328.32941	148.62766	929.81543	-367.74408	162.08876	975.32031	-237.63626	34.62308	938.57098	114.72794	637.03882	1186.09106	148.59103	518.31537	1153.58203	148.00407	250.49792	1153.66345	160.70613	65.83796	1105.08252	124.95895	40.7655	1059.40051	317.38403	35.62656	1097.92712	-39.77195	1688.32678	1015.84149	NaN	NaN	NaN	NaN	NaN	NaN	NaN	NaN	NaN	NaN	NaN	NaN	NaN	NaN	NaN
102	1.01	70.73901	1658.96167	953.1413	76.74874	1647.40955	1084.61902	-58.71039	1595.80957	957.64618	-51.28812	1590.04968	1087.27283	-46.00642	1438.60779	1007.59576	-69.65892	1110.46216	1012.64709	68.11499	1366.77197	1010.63	112.90499	1191.95166	1001.24524	-114.13905	1266.30115	1078.8728	16.36078	1398.54492	848.36469	53.56366	1198.84399	779.7807	78.94638	1088.4082	770.5376	180.33577	978.77734	755.13922	298.22571	933.86383	801.28485	256.39563	887.09088	768.3075	341.24542	857.49298	766.83954	17.06523	1394.03381	1171.9342	-45.27951	1199.46301	1251.71741	-51.88181	1077.61951	1263.62195	-61.36403	957.98517	1283.495	-29.12981	808.01196	1261.7157	-87.03208	822.4549	1296.19324	-71.30193	738.92487	1300.99536	105.01621	946.0058	905.35742	118.88421	967.07281	1124.24768	-50.4892	976.21832	940.33319	-34.5287	987.35205	1107.91907	3.54631	630.55023	861.96198	-19.7597	467.55484	882.69897	-205.29395	288.53464	890.86871	-317.13681	156.5605	930.37543	-354.32889	171.87222	976.79626	-234.80962	35.70149	938.9881	122.13787	637.58972	1186.63159	154.64108	518.48914	1154.27795	150.83365	250.59996	1153.61987	161.25233	65.90483	1104.77502	125.09428	40.88865	1059.30811	317.72772	35.18682	1097.12439	-29.08565	1690.66602	1016.76874	NaN	NaN	NaN	NaN	NaN	NaN	NaN	NaN	NaN	NaN	NaN	NaN	NaN	NaN	NaN
103	1.02	81.39941	1660.92981	953.90308	87.3132	1649.17456	1085.35046	-48.20502	1597.95227	958.28278	-40.87158	1592.05713	1087.97424	-35.39327	1440.49231	1008.59155	-59.16196	1112.64624	1014.19562	78.7977	1368.83386	1011.22321	123.68778	1194.05493	1002.12775	-102.99728	1268.59326	1080.25989	26.22524	1400.66602	849.37335	62.92744	1201.1604	781.06561	86.33193	1089.95227	772.56024	185.03059	977.64099	756.38879	302.10907	929.44531	801.76447	258.66678	883.74457	768.85132	342.72318	851.47253	767.36206	28.14299	1396.69263	1172.46118	-32.98266	1202.03186	1253.23315	-38.66026	1080.03882	1264.81921	-46.38916	960.23761	1284.5614	-11.93745	810.84387	1262.50623	-69.97474	824.41119	1297.1698	-52.76237	740.99933	1301.82593	115.16992	948.25012	906.77191	129.46053	968.75299	1125.33899	-40.20124	978.21106	942.15143	-23.43427	989.38379	1109.39917	17.86033	631.63318	861.94482	-1.71152	468.12976	881.97198	-189.72736	293.5112	891.35461	-304.15073	164.03267	930.20514	-340.05612	181.29561	977.18085	-230.61023	37.52245	939.20135	128.89265	637.89087	1187.13721	160.64835	518.61444	1155.18506	153.25453	250.75841	1153.65576	161.79118	66.02452	1104.53137	125.26833	41.07188	1059.22424	318.08929	34.68994	1096.7146	-18.31428	1692.59912	1017.52838	NaN	NaN	NaN	NaN	NaN	NaN	NaN	NaN	NaN	NaN	NaN	NaN	NaN	NaN	NaN
104	1.03	92.00341	1662.67029	954.54987	97.82003	1650.76807	1086.00049	-37.65932	1599.79858	958.84778	-29.86548	1593.60327	1087.84119	-24.93648	1442.09985	1009.39948	-48.57345	1114.50378	1015.73553	89.31993	1370.67664	1011.79608	134.39445	1195.90417	1003.00488	-92.04517	1270.71411	1081.78796	36.03466	1402.46228	850.2876	71.81963	1203.04993	782.27045	93.43514	1091.18518	774.53644	189.26193	976.14758	757.44983	305.62659	924.7558	802.04059	260.7308	880.55975	769.59131	343.72601	845.29169	767.99152	39.25211	1399.16785	1173.02283	-20.15276	1204.2085	1254.28088	-25.47334	1082.25464	1266.07959	-31.25467	962.35596	1285.71667	5.5654	813.16083	1262.92603	-52.4915	826.03497	1298.06348	-34.2131	742.74866	1302.37708	125.11098	950.37225	907.96869	140.00101	969.98035	1126.33679	-30.1382	979.89246	943.90448	-13.27351	991.54816	1111.19763	32.03991	632.55872	861.92389	16.48169	468.65387	881.40979	-173.18314	298.16092	891.31659	-290.1044	171.11635	929.77899	-324.76016	190.40155	977.05469	-224.73439	40.32569	939.53015	136.18051	638.48352	1187.99988	166.66287	518.6532	1155.86865	155.32449	250.87366	1153.85986	162.16661	66.0928	1104.35779	125.33595	41.21981	1059.16736	318.32687	34.37875	1096.69006	-7.75531	1694.37573	1018.14508	NaN	NaN	NaN	NaN	NaN	NaN	NaN	NaN	NaN	NaN	NaN	NaN	NaN	NaN	NaN
